<!DOCTYPE svg PUBLIC "-//W3C//DTD SVG 1.1//EN" "http://www.w3.org/Graphics/SVG/1.1/DTD/svg11.dtd">
<!-- Uploaded to: SVG Repo, www.svgrepo.com, Transformed by: SVG Repo Mixer Tools -->
<svg width="256px" height="256px" viewBox="0 0 48 48" xmlns="http://www.w3.org/2000/svg" fill="#ffffff" stroke="#ffffff">
<g id="SVGRepo_bgCarrier" stroke-width="0"/>
<g id="SVGRepo_tracerCarrier" stroke-linecap="round" stroke-linejoin="round"/>
<g id="SVGRepo_iconCarrier"> <path d="M0 0h48v48H0z" fill="none"/> <g id="Shopicon"> <path d="M29,4c-3.859,0-7,3.141-7,7v21h4V11c0-1.654,1.346-3,3-3s3,1.346,3,3l0,5h-0.001l0,6.919l0,9.081H32c0,4.411-3.589,8-8,8 s-7.999-3.589-7.999-8L16,10h-4l0.001,22c0,6.617,5.383,12,11.999,12c6.617,0,12-5.383,12-12l-0.001-9.081L36,11 C36,7.141,32.859,4,29,4z"/> </g> </g>
</svg>